<svg xmlns="http://www.w3.org/2000/svg" viewBox="0 0 67.70833 106.5835625" x="0px" y="0px"><title>donation</title><g data-name="Camada 2"><g data-name="Your Icon"><path d="M51.15605,3.97431H41.70147a1.0552,1.0552,0,1,0,0,2.1104h9.45458a1.0552,1.0552,0,0,0,0-2.1104Z"/><path d="M64.075,0H28.78253a3.63156,3.63156,0,0,0-3.61982,3.63326V41.33a4.4832,4.4832,0,0,0-.56734-.16207,4.36651,4.36651,0,0,0-.93187-.09455,4.6476,4.6476,0,0,0-4.1466,2.56627,4.6182,4.6182,0,0,0-7.99577,2.13406L7.99577,62.9a3.92832,3.92832,0,0,0-.081,1.0805l-.17559,2.44468a8.54368,8.54368,0,0,0,.81052,4.187c.85075,1.82344,1.472,4.47067-.45934,6.69928a74.64142,74.64142,0,0,1-5.34854,5.92939H1.013a1.013,1.013,0,0,0,0,2.026H39.28143a1.013,1.013,0,1,0,0-2.026H37.65626l7.79331-7.28005A13.7273,13.7273,0,0,0,48.0968,72.179c.04056-.081.06743-.16207.108-.24311H64.075a3.64318,3.64318,0,0,0,3.63334-3.63327V3.63326A3.64312,3.64312,0,0,0,64.075,0ZM27.18869,3.63326A1.60825,1.60825,0,0,1,28.78253,2.026H64.075a1.61986,1.61986,0,0,1,1.60736,1.60728V8.02289H27.18869Zm0,6.41562H65.68235v49.9H54.88816c.57244-.97985.86559-1.44307,1.01546-1.6546a2.70126,2.70126,0,0,0,.4727-1.067,2.66917,2.66917,0,0,0-.14855-1.6208l-.05392-.12152a2.67835,2.67835,0,0,0-.91868-1.18858l-.12135-.09455a2.95691,2.95691,0,0,0-1.09411-.48622L53.459,53.594a3.15881,3.15881,0,0,0-1.1617.054l-.91836.22967-.14871.054a17.09641,17.09641,0,0,0-2.70131,1.53976,7.50354,7.50354,0,0,0-3.29552,4.14652l-3.18753,3.97093a22.45243,22.45243,0,0,1-.60789-8.69822l2.0395-9.92736H43.491a15.01169,15.01169,0,0,0,2.9445.29719,14.67216,14.67216,0,1,0-11.42665-5.52422l-.18895.94548a4.748,4.748,0,0,0-2.4718-1.32362,4.63223,4.63223,0,0,0-5.15943,2.64723ZM45.26046,36.34609l.20246-1.013.67533-3.26856a4.06846,4.06846,0,0,0,.0676-1.33713c.3647.10807.70237.24311,1.013.35118,2.33661.90492,2.87707,1.80983,2.87707,3.51167a2.8039,2.8039,0,0,1-2.87707,2.9985,5.50816,5.50816,0,0,1-.67533.04047c-.17542,0-.35118-.01352-.51309-.027a3.37851,3.37851,0,0,1-.98611-.21606Zm-1.22915,5.95643.21616-1.06707.52677-2.5122a7.15638,7.15638,0,0,0,1.1345.16207c0,.01352-.01352.01352-.01352.027v1.999a.72941.72941,0,0,0,1.45882,0v-1.999c0-.01352-.01352-.04056-.01352-.054,2.98489-.28367,4.41667-2.1071,4.41667-4.47075,0-2.44468-1.14819-3.7683-4.53835-4.94336-.135-.04048-.27006-.09456-.40526-.135-.28359-.09456-.54013-.1756-.78316-.27015-.1352-.05408-.25671-.09456-.37822-.14855h-.01352a4.56447,4.56447,0,0,0-2.32309-2.053,3.24359,3.24359,0,0,1-.08112-.75636,2.64963,2.64963,0,0,1,2.79595-2.80938,2.93219,2.93219,0,0,1,.35119-.01352,5.24947,5.24947,0,0,1,.83723.0676,3.11228,3.11228,0,0,1,2.60684,3.147h1.53976A4.27271,4.27271,0,0,0,47.327,22.0427c0-.027.01352-.05408.01352-.081V20.31382a.72268.72268,0,0,0-1.4453,0v1.64784c0,.01352.01352.027.01352.04048-2.63371.18911-4.26795,1.86391-4.26795,4.22755a1.633,1.633,0,0,0,.01352.25663,4.63891,4.63891,0,0,0-4.67337,3.68726l-1.17507,5.68629-.2295,1.16154a12.59964,12.59964,0,1,1,10.85915,6.21306,13.1631,13.1631,0,0,1-2.53924-.25662Zm.01352,32.19956L35.887,82.1198a10.53858,10.53858,0,0,1-1.99894,1.12106H5.60525c2.33661-2.4582,3.90341-4.45714,4.052-4.63273,2.75522-3.17409,1.63423-6.91535.71572-8.86029a6.5629,6.5629,0,0,1-.60773-3.18761l.16207-2.5662a2.71849,2.71849,0,0,1,.04056-.67532l3.53871-17.1263a2.60525,2.60525,0,0,1,5.15959.52669,3.30757,3.30757,0,0,1-.027.36471l-1.87759,9.4141.10816.17551a1.087,1.087,0,0,0,.90483.4863,1.237,1.237,0,0,0,.21631-.01352,1.06486,1.06486,0,0,0,.85076-.85092l2.026-10.00831.22967-1.10755a2.65711,2.65711,0,0,1,3.07953-2.026,2.32307,2.32307,0,0,1,.986.43222,2.57964,2.57964,0,0,1,1.09394,2.12045,1.91043,1.91043,0,0,1-.027.39175l-1.0669,5.227-.932,4.56522.10816.16208a1.04764,1.04764,0,0,0,.82388.48621.1708.1708,0,0,0,.08095.01352,1.04363,1.04363,0,0,0,.2028-.027,1.08264,1.08264,0,0,0,.86427-.8374l.878-4.22755,1.04-5.01088s.04039-.17559.04039-.18911l.59438-2.89042a2.621,2.621,0,0,1,3.147-2.01247,2.53856,2.53856,0,0,1,1.64776,1.12107A2.5727,2.5727,0,0,1,34.05,44.43649l-1.83688,8.87382.12152.17559a1.083,1.083,0,0,0,.905.49973,1.05045,1.05045,0,0,0,.20263-.02695,1.06486,1.06486,0,0,0,.85092-.85092l1.72871-8.266s.04056-.17559.04056-.18911l.64829-3.12.48638-2.33661.027-.16215.243-1.21554,1.49921-7.23949a2.63171,2.63171,0,0,1,3.16049-2.01255,2.24062,2.24062,0,0,1,.28374.081,2.44051,2.44051,0,0,1,1.391,1.10754,2.52984,2.52984,0,0,1,.35119,1.90447l-.52661,2.55276L43.356,35.54925l-.081.40518-.39174,1.87743-.59421,2.90385-.21615,1.06707-.12151.59429-.41878,2.01247L39.43906,54.59345a23.28839,23.28839,0,0,0,.986,10.56213,1.54027,1.54027,0,0,0,1.20226.959,1.55786,1.55786,0,0,0,1.43161-.55381l4.06549-5.065.04039-.25663c.22984-1.2561,1.49937-2.3906,2.52588-3.12a15.722,15.722,0,0,1,2.269-1.29657l.97243-.22967c.09464,0,.17576.01352.21615.01352l.4727.09455a.80608.80608,0,0,1,.31063.135l.12167.09456a.81554.81554,0,0,1,.25655.31071l.04056.135a.597.597,0,0,1,.04056.43222.70579.70579,0,0,1-.1352.31062c-.37806.52678-1.13434,1.7964-2.30957,3.87638q-.56733,1.013-1.1345,2.026c-.81036,1.45873-1.68832,2.8769-2.52572,4.32211a3.16269,3.16269,0,0,1-.27006.45926,12.22468,12.22468,0,0,0-1.13467,2.107q-.28342.60777-.64829,1.45865a5.54693,5.54693,0,0,1-.28359.56733A11.80876,11.80876,0,0,1,44.04483,74.50208ZM64.075,69.90991H49.10979a6.95314,6.95314,0,0,1,.39174-.74293l1.29658-2.107c.09447-.14855.17559-.2971.24319-.39166l.16191-.25662a1.94552,1.94552,0,0,0,.16223-.27015c.04056-.081.08112-.17559.12152-.25663a1.75084,1.75084,0,0,1,.16207-.189,2.77724,2.77724,0,0,0,.52677-.94547c0-.01352.01352-.027.027-.04056.21615-.40518.82388-1.51273,1.51273-2.71483l.01154-.0202H65.68235v6.32781A1.61991,1.61991,0,0,1,64.075,69.90991Z"/></g></g><text x="0" y="100.26685" fill="#000000" font-size="5px" font-weight="bold" font-family="'Helvetica Neue', Helvetica, Arial-Unicode, Arial, Sans-serif">Created by Luiz Carvalho</text><text x="0" y="105.26685" fill="#000000" font-size="5px" font-weight="bold" font-family="'Helvetica Neue', Helvetica, Arial-Unicode, Arial, Sans-serif">from the Noun Project</text></svg>