<svg xmlns="http://www.w3.org/2000/svg" xmlns:xlink="http://www.w3.org/1999/xlink" version="1.1" x="0px" y="0px" viewBox="0 0 32 40" enable-background="new 0 0 32 32" xml:space="preserve"><g display="none"><rect x="-437" y="-84.833" display="inline" fill="#000000" stroke="#1A1718" stroke-miterlimit="10" width="533.333" height="202.333"/></g><g><g><g><path d="M22.412,32.06h-4.391l-0.14-0.271c-0.025-0.05-2.489-5.006,2.325-8.387c4.358-3.061,5.646-4.798,5.659-4.815l0.103-0.141     l0.169-0.048c0.252-0.07,1.542-0.387,2.112,0.313c0.341,0.417,0.311,1.024-0.089,1.806c-0.346,0.673-0.757,1.274-1.164,1.788     c0.702-0.489,1.373-1.189,1.687-2.169c0.294-0.917,0.386-1.689,0.468-2.37c0.157-1.322,0.294-2.465,2.058-2.895l0.504-0.123     l0.104,0.508c0.046,0.227,1.099,5.59-2.309,8.913c-1.091,1.063-2.254,1.924-3.28,2.683c-2.057,1.521-3.682,2.722-3.791,4.735     L22.412,32.06z M18.65,31.06h2.837c0.333-2.193,2.11-3.507,4.147-5.013c1.049-0.775,2.134-1.577,3.177-2.595     c2.408-2.349,2.267-6.024,2.108-7.427c-0.59,0.301-0.651,0.817-0.776,1.858c-0.082,0.69-0.185,1.549-0.507,2.557     c-0.98,3.061-4.558,3.829-4.709,3.86l-2.083,0.428l1.675-1.312c0.017-0.014,1.734-1.373,2.751-3.357     c0.282-0.549,0.205-0.716,0.204-0.717c-0.071-0.088-0.493-0.108-0.917-0.019c-0.41,0.502-1.938,2.2-5.776,4.896     C17.229,26.715,18.251,30.082,18.65,31.06z"/></g><g><path d="M13.979,32.06H9.588l-0.025-0.473c-0.109-2.014-1.734-3.215-3.791-4.735c-1.026-0.759-2.189-1.619-3.28-2.683     c-3.407-3.323-2.354-8.687-2.309-8.913l0.104-0.508l0.504,0.123c1.764,0.43,1.9,1.572,2.058,2.895     c0.082,0.681,0.174,1.453,0.468,2.37c0.313,0.979,0.984,1.68,1.687,2.169c-0.407-0.514-0.818-1.115-1.164-1.788     c-0.399-0.781-0.43-1.389-0.089-1.806c0.571-0.7,1.86-0.384,2.112-0.313l0.168,0.047l0.104,0.142     c0.013,0.018,1.301,1.755,5.659,4.815c4.814,3.381,2.351,8.337,2.325,8.387L13.979,32.06z M10.513,31.06h2.836     c0.396-0.981,1.406-4.356-2.13-6.84c-3.839-2.695-5.366-4.394-5.776-4.896c-0.424-0.09-0.847-0.069-0.917,0.019     c-0.001,0.001-0.078,0.168,0.204,0.717c1.021,1.992,2.733,3.344,2.751,3.356l1.684,1.314l-2.092-0.43     c-0.151-0.031-3.729-0.8-4.709-3.86c-0.322-1.008-0.425-1.866-0.507-2.557c-0.125-1.041-0.187-1.558-0.776-1.858     c-0.158,1.402-0.3,5.078,2.108,7.427c1.043,1.018,2.128,1.819,3.177,2.595C8.402,27.553,10.18,28.867,10.513,31.06z"/></g></g><g><g><path d="M16,1c4.11,0,7.454,3.344,7.454,7.454S20.11,15.907,16,15.907s-7.454-3.344-7.454-7.454S11.89,1,16,1 M16,0     c-4.669,0-8.454,3.785-8.454,8.454c0,4.669,3.785,8.454,8.454,8.454s8.454-3.785,8.454-8.454C24.454,3.785,20.669,0,16,0L16,0z"/></g></g><g><g><path d="M15.796,13.931v-1.348c-0.774-0.013-1.574-0.254-2.041-0.587l0.32-0.894c0.481,0.32,1.175,0.574,1.921,0.574     c0.948,0,1.588-0.547,1.588-1.308c0-0.733-0.521-1.187-1.508-1.587c-1.361-0.534-2.202-1.148-2.202-2.308     c0-1.108,0.788-1.948,2.015-2.148V2.976h0.827V4.27c0.8,0.027,1.348,0.24,1.735,0.467l-0.334,0.881     c-0.28-0.161-0.827-0.454-1.681-0.454c-1.027,0-1.414,0.614-1.414,1.147c0,0.694,0.494,1.041,1.654,1.521     c1.375,0.561,2.069,1.254,2.069,2.442c0,1.054-0.734,2.041-2.109,2.268v1.388H15.796z"/></g></g></g><text x="0" y="47" fill="#000000" font-size="3px" font-weight="bold" font-family="'Helvetica Neue', Helvetica, Arial-Unicode, Arial, Sans-serif">AlfredoCreates.com/icons &amp; Flaticondesign.com</text><text x="0" y="50" fill="#000000" font-size="3px" font-weight="bold" font-family="'Helvetica Neue', Helvetica, Arial-Unicode, Arial, Sans-serif">from the Noun Project</text></svg>